<svg width="1440" height="1080" viewBox="0 0 1440 1080" fill="none" xmlns="http://www.w3.org/2000/svg">
  <rect width="1440" height="1080" rx="40" fill="#0F172A"/>
  <rect x="36" y="36" width="1368" height="1008" rx="28" fill="#020617"/>
  <rect x="72" y="72" width="256" height="936" rx="24" fill="#111827"/>
  <rect x="360" y="72" width="1008" height="118" rx="24" fill="#111827"/>
  <rect x="360" y="222" width="648" height="390" rx="28" fill="#111827"/>
  <rect x="1040" y="222" width="328" height="188" rx="28" fill="#111827"/>
  <rect x="1040" y="442" width="328" height="170" rx="28" fill="#111827"/>
  <rect x="360" y="644" width="1008" height="364" rx="28" fill="#111827"/>
  <rect x="102" y="116" width="120" height="18" rx="9" fill="#E2E8F0"/>
  <rect x="102" y="170" width="180" height="14" rx="7" fill="#334155"/>
  <rect x="102" y="214" width="180" height="14" rx="7" fill="#334155"/>
  <rect x="102" y="258" width="180" height="14" rx="7" fill="#334155"/>
  <rect x="102" y="332" width="196" height="120" rx="22" fill="url(#paint0_linear_605_4)"/>
  <rect x="102" y="480" width="196" height="120" rx="22" fill="#0F172A"/>
  <rect x="102" y="628" width="196" height="120" rx="22" fill="#0F172A"/>
  <rect x="390" y="106" width="248" height="22" rx="11" fill="#F8FAFC"/>
  <rect x="390" y="146" width="160" height="14" rx="7" fill="#475569"/>
  <rect x="390" y="260" width="220" height="20" rx="10" fill="#F8FAFC"/>
  <rect x="390" y="300" width="340" height="12" rx="6" fill="#334155"/>
  <rect x="390" y="340" width="278" height="12" rx="6" fill="#334155"/>
  <rect x="390" y="404" width="588" height="174" rx="20" fill="#0B1020"/>
  <path d="M436 522C474.667 466 531.6 382.4 610 382.4C688.4 382.4 706.667 471.067 760 510C813.333 548.933 855.6 521.467 932 438" stroke="#6366F1" stroke-width="16" stroke-linecap="round"/>
  <rect x="1070" y="256" width="150" height="18" rx="9" fill="#F8FAFC"/>
  <rect x="1070" y="292" width="114" height="12" rx="6" fill="#334155"/>
  <circle cx="1276" cy="310" r="42" fill="url(#paint1_linear_605_4)"/>
  <rect x="1070" y="476" width="186" height="18" rx="9" fill="#F8FAFC"/>
  <rect x="1070" y="512" width="160" height="12" rx="6" fill="#334155"/>
  <rect x="1070" y="548" width="214" height="12" rx="6" fill="#334155"/>
  <rect x="390" y="682" width="190" height="20" rx="10" fill="#F8FAFC"/>
  <rect x="390" y="724" width="316" height="12" rx="6" fill="#334155"/>
  <rect x="390" y="778" width="292" height="164" rx="20" fill="#0B1020"/>
  <rect x="714" y="778" width="292" height="164" rx="20" fill="#0B1020"/>
  <rect x="1038" y="778" width="292" height="164" rx="20" fill="#0B1020"/>
  <rect x="424" y="816" width="132" height="16" rx="8" fill="#F8FAFC"/>
  <rect x="424" y="848" width="188" height="10" rx="5" fill="#334155"/>
  <rect x="748" y="816" width="132" height="16" rx="8" fill="#F8FAFC"/>
  <rect x="748" y="848" width="188" height="10" rx="5" fill="#334155"/>
  <rect x="1072" y="816" width="132" height="16" rx="8" fill="#F8FAFC"/>
  <rect x="1072" y="848" width="188" height="10" rx="5" fill="#334155"/>
  <defs>
    <linearGradient id="paint0_linear_605_4" x1="102" y1="332" x2="298" y2="452" gradientUnits="userSpaceOnUse">
      <stop stop-color="#6366F1"/>
      <stop offset="1" stop-color="#06B6D4"/>
    </linearGradient>
    <linearGradient id="paint1_linear_605_4" x1="1234" y1="268" x2="1318" y2="352" gradientUnits="userSpaceOnUse">
      <stop stop-color="#22C55E"/>
      <stop offset="1" stop-color="#14B8A6"/>
    </linearGradient>
  </defs>
</svg>
